<svg width="50" height="47" viewBox="0 0 50 47" fill="none" xmlns="http://www.w3.org/2000/svg">
<path d="M49.4386 22.2716C45.8485 17.0422 38.4264 24.7382 24.8809 26.3025C19.8657 26.8809 15.3468 31.0688 9.5209 30.6698C7.13215 30.5057 3.79653 23.6328 1.29932 24.7285C0.0145717 25.293 -0.574968 27.177 0.745935 28.5925L15.4121 46.0924C15.4121 46.0924 16.1574 46.9517 18.6685 46.3566C19.2872 46.5387 28.5892 42.811 33.9673 35.3486C35.2549 33.5619 36.7899 32.0741 38.3792 30.8311C43.539 27.0157 49.148 25.6865 49.148 25.6865C49.8655 25.0942 50.0337 24.4643 49.9948 23.9179C50.042 23.0058 49.4386 22.2716 49.4386 22.2716V22.2716Z" fill="#2DB454"/>
<path d="M15.8931 13.9207C10.6331 21.2204 1.42153 24.6784 1.42153 24.6784C-0.297037 26.1342 1.15457 27.85 1.15457 27.85L15.6678 45.0342C15.6678 45.0342 16.3936 45.8921 18.838 45.297C18.838 45.297 28.0495 41.846 33.3081 34.5463C38.7294 27.0241 48.5055 24.6492 48.5055 24.6492C50.2226 23.1935 48.7724 21.4749 48.7724 21.4749L34.2592 4.29341C34.2592 4.29341 33.5334 3.43413 31.089 4.02645C31.089 4.02645 21.3143 6.39574 15.8931 13.9207V13.9207Z" fill="#97CDA7"/>
<path d="M30.5262 26.7488C34.7497 26.7488 38.1736 23.325 38.1736 19.1015C38.1736 14.878 34.7497 11.4542 30.5262 11.4542C26.3027 11.4542 22.8789 14.878 22.8789 19.1015C22.8789 23.325 26.3027 26.7488 30.5262 26.7488Z" fill="#2DB454"/>
<path d="M17.8352 44.0303C16.6103 44.0303 16.1612 43.5742 16.1 43.5047L3.01749 28.2337C2.99246 28.2045 2.32923 27.4453 2.40987 26.4804C2.45854 25.895 2.76165 25.3736 3.30948 24.93L3.39707 24.8772C3.48189 24.8438 11.9663 21.3566 16.7215 15.0538L16.9996 15.2624L16.7215 15.0538C21.7521 8.38537 30.4297 5.52388 30.5159 5.49607C32.9422 4.93156 33.7361 5.738 33.8209 5.83255L46.731 21.1884C46.7547 21.2134 47.4165 21.9754 47.3359 22.9417C47.2872 23.5257 46.9841 24.0471 46.4363 24.4907L46.2986 24.5588C46.2138 24.5796 37.7767 26.6764 32.8894 33.153C28.0243 39.6046 19.5316 43.7786 19.4467 43.8189C18.8016 43.9719 18.2704 44.0303 17.8352 44.0303V44.0303ZM16.6242 43.0473C16.6256 43.0473 17.2527 43.6257 19.2173 43.1696C19.2284 43.1543 27.5724 39.0512 32.3374 32.7359C37.1163 26.4025 45.164 24.1403 46.0567 23.9053C46.414 23.598 46.6115 23.2574 46.6434 22.8917C46.7018 22.2243 46.2096 21.65 46.2055 21.6445L33.2954 6.28722C33.2926 6.28722 32.6697 5.71019 30.7036 6.16625C30.6466 6.18572 22.1734 8.98325 17.2777 15.4724C12.5975 21.675 4.43155 25.1984 3.70992 25.5015C3.33728 25.8143 3.13428 26.1633 3.1023 26.5374C3.04669 27.1992 3.53612 27.7707 3.54029 27.7762L16.6242 43.0473V43.0473Z" fill="#2DB454"/>
<path d="M29.5193 30.4556L29.511 38.7148L30.202 39.5351C31.5493 38.306 32.8438 36.9239 33.9631 35.3694C35.1241 33.7593 36.4728 32.3814 37.8952 31.2176L37.2237 30.4181L29.5193 30.4556V30.4556Z" fill="#FFAC33"/>
<path d="M37.1973 30.389L19.8086 9.7926C18.3959 10.955 17.0389 12.3107 15.8848 13.9138C14.7572 15.4794 13.4446 16.8573 12.082 18.0726L14.1148 20.4794L14.1134 20.4808L29.5124 38.7148C30.875 37.4982 32.1723 36.1064 33.3013 34.5394C34.4554 32.9376 35.811 31.5833 37.2223 30.4209L37.1959 30.389H37.1973V30.389Z" fill="#FFE8B6"/>
<path d="M20.0684 30.9964C17.9035 28.4325 13.3207 32.5927 12.0137 31.0451C11.381 30.2957 11.7884 29.3238 12.6199 28.623C14.0173 27.4411 15.0253 28.1294 15.658 27.5941C16.1071 27.2159 16.0834 26.7529 15.8165 26.4345C15.1963 25.7017 13.6113 26.0841 12.3793 26.796L11.7801 26.0869C11.406 25.6447 10.7442 25.5877 10.302 25.9617C9.85989 26.3371 9.80428 26.9962 10.1783 27.4383L10.7984 28.1739C9.85711 29.4225 9.53732 31.0799 10.651 32.3966C12.7311 34.8577 17.371 30.767 18.8309 32.4967C19.337 33.0974 19.1952 34.2431 18.1301 35.1413C16.5339 36.4914 15.0879 35.8588 14.4386 36.4066C14.1215 36.6722 14.0645 37.1783 14.4024 37.5801C14.9405 38.2155 16.6549 38.0793 18.3026 37.0531C18.3053 37.0559 18.3053 37.0587 18.3053 37.0615L18.9825 37.8624C19.3565 38.3045 20.0197 38.3587 20.4619 37.9875C20.9054 37.6121 20.9597 36.9502 20.5856 36.5081L19.9085 35.7072C19.9015 35.6989 19.8904 35.6933 19.8821 35.685C20.993 34.3251 21.3684 32.5329 20.0684 30.9964V30.9964Z" fill="#2DB454"/>
<path d="M45.0642 44.9465C45.0767 44.9354 45.0906 44.9271 45.1031 44.9173C45.1977 44.8228 45.2714 44.7143 45.3548 44.61C45.4132 44.5377 45.4785 44.4682 45.5328 44.3945C45.5814 44.325 45.6218 44.2541 45.6663 44.1832C47.6407 41.1423 46.3476 35.9866 42.4391 32.0768C38.5292 28.1669 33.3721 26.8738 30.3327 28.8496C30.2604 28.8927 30.1894 28.933 30.1199 28.9831C30.0462 29.0373 29.9753 29.1026 29.9058 29.1597C29.8029 29.2445 29.6945 29.3168 29.5985 29.4127C29.586 29.4252 29.5777 29.4391 29.5679 29.4516C29.5526 29.4669 29.5346 29.4767 29.5179 29.4934L29.5262 29.5003C28.1358 30.9769 28.1191 33.2614 29.5179 34.6616C30.9194 36.0631 33.2025 36.0436 34.6805 34.6532L34.6958 34.6699C34.6666 34.6977 34.6346 34.7158 34.6068 34.7436C33.1344 36.2161 33.0996 38.5645 34.5248 39.9924C35.9514 41.4176 38.3026 41.3829 39.7736 39.9104C39.8014 39.8826 39.8195 39.8506 39.8473 39.8214L39.8626 39.8381C38.4722 41.3147 38.4541 43.5992 39.8557 45.0008C41.2558 46.3995 43.5389 46.3828 45.0155 44.9924L45.0239 45.0008C45.0378 44.9813 45.0489 44.9632 45.0642 44.9465V44.9465Z" fill="#E1E8ED"/>
<path d="M29.5207 34.7173C30.7805 35.9756 32.7479 36.0785 34.2065 35.0802C34.8169 34.0374 34.992 33.046 34.992 32.7359C31.9234 35.0246 29.1842 32.7484 28.5711 31.3872C28.3166 32.5635 28.6253 33.8205 29.5207 34.7173ZM39.6694 40.0565C40.0838 39.4739 40.405 38.9108 40.5551 38.5298C38.6016 40.3207 34.8669 39.0095 33.7351 36.1689C33.2373 37.4898 33.4918 39.0109 34.529 40.0482C35.9222 41.4414 38.1914 41.4302 39.6694 40.0565ZM45.0281 45.0551L45.0684 45.005C45.0824 44.9939 45.0963 44.9856 45.1074 44.9744C45.2033 44.8799 45.277 44.7714 45.359 44.6685C45.4188 44.5948 45.4828 44.5267 45.537 44.4516C45.5871 44.3835 45.6274 44.3112 45.6719 44.2403C45.7623 44.1012 45.8109 43.9372 45.8874 43.7898C42.3724 45.3624 39.7487 42.6941 39.0132 41.3635C38.603 42.6385 38.8699 44.0665 39.8599 45.0579C41.2587 46.458 43.5418 46.4413 45.0198 45.0495L45.0281 45.0551Z" fill="#CCD6DD"/>
<path d="M19.3415 17.013L19.3804 16.9824C19.4763 16.8879 19.55 16.7794 19.6321 16.6765C19.6905 16.6042 19.7544 16.5361 19.8087 16.461C19.8587 16.3915 19.899 16.3206 19.9435 16.2497C21.9179 13.2088 20.6234 8.05171 16.715 4.14323C12.8051 0.233352 7.64939 -1.06113 4.60853 0.913269C4.53762 0.957763 4.46532 0.998085 4.3958 1.04814C4.32071 1.10237 4.25258 1.16633 4.18028 1.22472C4.07739 1.30815 3.96894 1.38045 3.87439 1.47639C3.86187 1.48891 3.85353 1.5042 3.8438 1.51532C3.8285 1.52923 3.80904 1.54174 3.79374 1.55704L3.8007 1.56399C2.41027 3.04062 2.39359 5.32509 3.79374 6.72524C5.1939 8.1254 7.47837 8.10872 8.955 6.71829L8.97029 6.73359C8.94109 6.76 8.90911 6.77947 8.88131 6.80728C7.40885 8.27974 7.37409 10.6282 8.80066 12.0561C10.2272 13.4841 12.5771 13.4479 14.0495 11.9755C14.0773 11.9477 14.0954 11.9157 14.1232 11.8865L14.1385 11.9018C12.7481 13.3784 12.73 15.6629 14.1315 17.063C15.5317 18.4632 17.8148 18.4465 19.2914 17.0547L19.2984 17.063C19.3137 17.0478 19.3262 17.0297 19.3415 17.013V17.013Z" fill="#E1E8ED"/>
<path d="M3.79245 6.72671C5.05218 7.98643 7.01963 8.08932 8.47819 7.08822C9.08858 6.0454 9.26238 5.05542 9.26238 4.74535C6.19511 7.0326 3.45458 4.75509 2.84279 3.39386C2.58835 4.57155 2.89702 5.82988 3.79245 6.72671V6.72671ZM13.9439 12.0632C14.3569 11.4806 14.6781 10.9202 14.8269 10.5393C12.8719 12.3301 9.13725 11.0176 8.00683 8.17692C7.50906 9.49782 7.76351 11.0189 8.79937 12.0562C10.1954 13.4508 12.4659 13.4383 13.9439 12.0632V12.0632ZM19.2985 17.0645C19.3138 17.0492 19.3263 17.0311 19.3402 17.0145L19.3791 16.9839C19.4751 16.8893 19.5487 16.7809 19.6308 16.678C19.6892 16.6057 19.7531 16.5375 19.8074 16.4625C19.8574 16.3929 19.8977 16.322 19.9422 16.2511C20.0326 16.1121 20.0813 15.9466 20.1578 15.7992C16.6428 17.3718 14.019 14.705 13.2835 13.3743C12.8733 14.6493 13.1403 16.0773 14.1303 17.0673C15.5304 18.4674 17.8135 18.4508 19.2901 17.059L19.2985 17.0645V17.0645Z" fill="#CCD6DD"/>
</svg>
