<svg width="414" height="896" viewBox="0 0 414 896" fill="none" xmlns="http://www.w3.org/2000/svg">
<g clip-path="url(#clip0)">
<rect width="414" height="896" fill="white"/>
<path d="M93.71 -247.938C95.643 -251.286 99.9241 -252.433 103.272 -250.5L640.561 59.7041C643.909 61.6371 645.057 65.9182 643.124 69.2662L469.494 370.002C467.273 373.849 461.378 371.557 462.338 367.22V367.22C485.848 261.047 396.555 163.861 288.775 178.314L177.397 193.25V193.25C76.6933 201.15 -21.5904 159.734 -86.2676 82.1416L-92.1461 75.0892C-92.3746 74.8152 -92.4078 74.4277 -92.2294 74.1186L93.71 -247.938Z" fill="#DDF9E4"/>
<path d="M-71 -206C-71 -209.866 -67.866 -213 -64 -213H448C451.866 -213 455 -209.866 455 -206V80.3184C455 84.0001 449.819 84.7993 448.71 81.2886V81.2886C421.562 -4.61821 317.259 -37.3681 245.878 17.6017L171.989 74.5021V74.5021C102.945 121.864 15.2389 132.857 -63.3583 103.999L-70.537 101.363C-70.8151 101.261 -71 100.996 -71 100.7V-206Z" fill="#2DB454"/>
<path d="M507.185 868.943C506.907 872.799 503.555 875.7 499.699 875.422L-47.8807 835.964C-51.7367 835.686 -54.6373 832.335 -54.3595 828.479L-43.0039 670.891C-42.7563 667.455 -38.1404 666.529 -36.586 669.603V669.603C-6.15933 729.78 63.5772 758.813 127.719 738.007L258.931 695.446V695.446C337.831 673.182 421.285 672.685 500.444 694.007L518.348 698.829C518.972 698.997 519.388 699.584 519.342 700.228L507.185 868.943Z" fill="#2DB454"/>
</g>
<defs>
<clipPath id="clip0">
<rect width="414" height="896" fill="white"/>
</clipPath>
</defs>
</svg>
